<?xml version="1.0" encoding="iso-8859-1"?>
<!-- Generator: Adobe Illustrator 19.0.0, SVG Export Plug-In . SVG Version: 6.00 Build 0)  -->
<svg version="1.1" id="Capa_1" xmlns="http://www.w3.org/2000/svg" xmlns:xlink="http://www.w3.org/1999/xlink" x="0px" y="0px"
	 viewBox="0 0 460 460" style="enable-background:new 0 0 460 460;" xml:space="preserve">
<g>
	<path style="fill:#325763;" d="M375,310.077V460h35V280.522C400.197,292.319,388.352,302.349,375,310.077z"/>
	<path style="fill:#05232E;" d="M150,347.53V460h35V357.5c35.133,0,67.006-13.943,90.402-36.59l-72.607-13.83
		C189.091,324.755,170.933,338.8,150,347.53z"/>
	<path style="fill:#FAEAB6;" d="M410,201.369l-0.084-0.003c-1.574,41.607-28.08,76.252-64.916,89.898v31.468
		c10.614-2.961,20.668-7.254,30-12.655c13.352-7.727,25.197-17.758,35-29.554c17.723-21.327,28.774-48.398,29.895-78.022H440
		v-98.833l-30,10V201.369z"/>
	<path style="fill:#6B8F9C;" d="M202.794,307.08C219.845,285.088,230,257.481,230,227.5v-47.727L100,197.5c-38.66,0-70-31.34-70-70
		c0-38.66,31.34-70,70-70v-30c-55.229,0-100,44.771-100,100c0,55.228,44.771,100,100,100V325H65v135h35V357.5
		c17.719,0,34.607-3.551,50-9.97C170.933,338.8,189.091,324.755,202.794,307.08z"/>
	<path style="fill:#325763;" d="M440,47.143L420,30h-27V0c-12.065,0-22.362,7.534-26.479,18.144l-57.98,149.564L230,179.773V227.5
		c0,29.982-10.155,57.588-27.206,79.58l72.607,13.83L310,327.5V460h35V291.263c36.836-13.646,63.342-48.29,64.916-89.898
		l0.084,0.003v-87.702l30-10l1.026-0.342C451.462,99.846,460,88,460,77V50L440,47.143z"/>
</g>
<g>
</g>
<g>
</g>
<g>
</g>
<g>
</g>
<g>
</g>
<g>
</g>
<g>
</g>
<g>
</g>
<g>
</g>
<g>
</g>
<g>
</g>
<g>
</g>
<g>
</g>
<g>
</g>
<g>
</g>
</svg>
