<?xml version="1.0" encoding="UTF-8" standalone="no"?> <svg id="Capa_1" data-name="Capa 1" xmlns="http://www.w3.org/2000/svg" xmlns:xlink="http://www.w3.org/1999/xlink" viewBox="0 0 187 187"><defs><style>.cls-1{fill:url(#linear-gradient);}</style><linearGradient id="linear-gradient" x1="13.97" y1="93.5" x2="172.35" y2="93.5" gradientUnits="userSpaceOnUse"><stop offset="0" stop-color="#00ffa9"/><stop offset="1" stop-color="#0d4dff"/></linearGradient></defs><title>Q</title><path class="cls-1" d="M172.35,127.34c-.29-10.91-.13-21.84-.06-32.76a17.24,17.24,0,0,0-1.58-7.75c-3.35-7-6.7-14.1-9.82-21.25-1.69-3.88-4.15-5.56-8.54-5.45-10.5.27-21,0-31.52.15-3.11,0-4.41-.61-4.23-4,.3-5.34-.21-10.73.15-16.06.41-6.1-2.37-7.95-8-7.87-14.43.21-28.85.07-43.28.07s-28.85,0-43.27,0c-7.25,0-8.16,1-8.17,8.24Q14,75,14,109.27c0,10.35,0,10.33,10.25,11.21,1.19.1,3.43-.74,2.91,1.72-.28,1.31-.18,3.56-2.63,3.54-1,0-2.07.05-3.09,0-3.51-.13-7.17.13-7.26,4.59s3.7,5,7.11,4.76,5,.86,6.24,4.15c3.91,10,11.68,15.3,22.39,15.37s18.45-5.3,22.53-15.22c1.28-3.11,2.58-4.41,6.09-4.31,9.89.27,19.79.24,29.67,0,3.44-.08,4.89,1,6.16,4.28a23.24,23.24,0,0,0,22.49,15.29c10.77-.2,18.42-5.5,22.52-15.34,1.2-2.88,2.17-4.51,5.51-4.2C170.45,135.65,172.49,132.88,172.35,127.34ZM150.49,96.05c-3.36.15-22.39.11-27.46.09a1.23,1.23,0,0,1-1.23-1.25V75.08a1.25,1.25,0,0,1,1.25-1.25h3.6c5.94,0,11.88,0,17.82,0a5.66,5.66,0,0,1,5.43,3.33c1.93,3.84,3.84,7.69,5.45,11.66C157.16,93.29,155.42,95.83,150.49,96.05Z"/></svg>