<svg version="1" xmlns="http://www.w3.org/2000/svg" width="346.667" height="346.667" viewBox="0 0 260.000000 260.000000"><path d="M127.5 19.2c-1.1 1.1-7.4 6.5-14 12.1-20.2 17-24 20.2-24.5 20.7-.3.3-4.5 3.9-9.5 8-4.9 4.1-9.2 7.7-9.5 8-.3.3-6.1 5.3-13 11-6.9 5.8-12.7 10.7-13 11-.3.3-3.2 2.7-6.5 5.5-3.3 2.7-7.1 6-8.5 7.1-1.4 1.2-8.5 7.2-15.8 13.4C2.3 125.3 0 127.7.1 129.9c0 2.1 3.3 5.4 18.8 18.4 10.4 8.7 19.7 16.6 20.7 17.5 1.1.9 6 5.1 10.9 9.2 8 6.6 18.6 15.5 66.7 56.3l12.6 10.7 6.4-5.2c3.5-2.9 6.5-5.5 6.8-5.8.3-.3 2.1-1.8 4-3.4 1.9-1.5 5.8-4.8 8.5-7.1 9.1-7.8 21-17.9 26-22 2.6-2.2 8.2-6.9 12.4-10.5 4.2-3.6 9.9-8.4 12.6-10.7 2.8-2.3 6.1-5.1 7.5-6.3 1.4-1.2 4.5-3.8 6.9-5.8 2.4-2.1 10.8-9.1 18.5-15.7 7.8-6.6 15.6-13.2 17.4-14.7 6-5 5.7-5.4-22-28.9-61-51.5-101.9-86-103.9-87.5-1.1-.9-1.9-.7-3.4.8z"/></svg>